# xmcd
#
# Track frame offsets: 
#        150
#        17005
#        30338
#        42850
#        59683
#        75445
#        83938
#        91523
#        109663
#        125410
#        140145
#        152888
#
# Disc length: 2263 seconds
#
# Revision: 3
# Processed by: cddbd v1.5PL3 Copyright (c) Steve Scherf et al.
# Submitted via: ExactAudioCopy v0.90b4
#
DISCID=8e08d50c
DTITLE=Lilholt. Lars - Med natten mod vest
DYEAR=1991
DGENRE=Folk-Rock
TTITLE0=Liv efter liv
TTITLE1=Ofelia
TTITLE2=På et enkelt kort sekund
TTITLE3=Og så blev der ro
TTITLE4=Hvorend jeg gir mig hen
TTITLE5=Som blind passager
TTITLE6=Som stjernerne på himlen blå
TTITLE7=Elskeren fra Lübeck
TTITLE8=Når skibene forsvinder
TTITLE9=Under fuldmånens skær
TTITLE10=I blå ballerinasko
TTITLE11=Den blå hypnotisør
EXTD=Record number: Fanfare Records, 510 002-2\n
EXTT0=
EXTT1=
EXTT2=
EXTT3=
EXTT4=
EXTT5=
EXTT6=
EXTT7=
EXTT8=
EXTT9=
EXTT10=
EXTT11=
PLAYORDER=
